REM DIRINDEX 1\2,1\3,1\4,1\5,1\6,1\7,1\8
REM DIRNAME folder01,folder02,folder03,folder04,folder05,folder06,folder07,folder08
TITLE ""
FILE "005 でる文25.mp3" MP3
  TRACK 01 AUDIO
    TITLE "8:cjc150_1109"
    INDEX 01 00:00:00
  TRACK 02 AUDIO
    TITLE "0:"
    INDEX 01 00:01:48
  TRACK 03 AUDIO
    TITLE "2:cjc150_1110"
    INDEX 01 00:02:34
  TRACK 04 AUDIO
    TITLE "0:"
    INDEX 01 00:07:68
  TRACK 05 AUDIO
    TITLE "8:cjc150_1111"
    INDEX 01 00:09:20
  TRACK 06 AUDIO
    TITLE "0:"
    INDEX 01 00:11:72
  TRACK 07 AUDIO
    TITLE "3:cjc150_1112"
    INDEX 01 00:12:46
  TRACK 08 AUDIO
    TITLE "3:cjc150_1113"
    INDEX 01 00:14:13
  TRACK 09 AUDIO
    TITLE "3:cjc150_1114"
    INDEX 01 00:15:40
  TRACK 10 AUDIO
    TITLE "3:cjc150_1115"
    INDEX 01 00:17:47
  TRACK 11 AUDIO
    TITLE "3:cjc150_1116"
    INDEX 01 00:19:44
  TRACK 12 AUDIO
    TITLE "3:cjc150_1117"
    INDEX 01 00:21:27
  TRACK 13 AUDIO
    TITLE "3:cjc150_1118"
    INDEX 01 00:23:03
  TRACK 14 AUDIO
    TITLE "3:cjc150_1119"
    INDEX 01 00:25:15
  TRACK 15 AUDIO
    TITLE "8:cjc150_1120"
    INDEX 01 00:27:18
  TRACK 16 AUDIO
    TITLE "0:"
    INDEX 01 00:29:70
  TRACK 17 AUDIO
    TITLE "4:cjc150_1121"
    INDEX 01 00:30:44
  TRACK 18 AUDIO
    TITLE "4:cjc150_1122"
    INDEX 01 00:32:09
  TRACK 19 AUDIO
    TITLE "4:cjc150_1123"
    INDEX 01 00:34:02
  TRACK 20 AUDIO
    TITLE "4:cjc150_1124"
    INDEX 01 00:36:15
  TRACK 21 AUDIO
    TITLE "4:cjc150_1125"
    INDEX 01 00:38:63
  TRACK 22 AUDIO
    TITLE "4:cjc150_1126"
    INDEX 01 00:42:12
  TRACK 23 AUDIO
    TITLE "8:cjc150_1127"
    INDEX 01 00:45:73
  TRACK 24 AUDIO
    TITLE "0:"
    INDEX 01 00:48:67
  TRACK 25 AUDIO
    TITLE "5:cjc150_1128"
    INDEX 01 00:49:51
  TRACK 26 AUDIO
    TITLE "5:cjc150_1129"
    INDEX 01 00:51:73
  TRACK 27 AUDIO
    TITLE "5:cjc150_1130"
    INDEX 01 00:54:19
  TRACK 28 AUDIO
    TITLE "5:cjc150_1131"
    INDEX 01 00:55:65
  TRACK 29 AUDIO
    TITLE "5:cjc150_1132"
    INDEX 01 00:57:39
  TRACK 30 AUDIO
    TITLE "5:cjc150_1133"
    INDEX 01 00:59:38
  TRACK 31 AUDIO
    TITLE "5:cjc150_1134"
    INDEX 01 01:02:16
  TRACK 32 AUDIO
    TITLE "5:cjc150_1135"
    INDEX 01 01:04:25
  TRACK 33 AUDIO
    TITLE "5:cjc150_1136"
    INDEX 01 01:06:14
  TRACK 34 AUDIO
    TITLE "5:cjc150_1137"
    INDEX 01 01:07:64
  TRACK 35 AUDIO
    TITLE "5:cjc150_1138"
    INDEX 01 01:10:39
  TRACK 36 AUDIO
    TITLE "5:cjc150_1139"
    INDEX 01 01:12:19
  TRACK 37 AUDIO
    TITLE "5:cjc150_1140"
    INDEX 01 01:14:23
  TRACK 38 AUDIO
    TITLE "5:cjc150_1141"
    INDEX 01 01:16:60
  TRACK 39 AUDIO
    TITLE "5:cjc150_1142"
    INDEX 01 01:19:70
  TRACK 40 AUDIO
    TITLE "5:cjc150_1143"
    INDEX 01 01:22:15
  TRACK 41 AUDIO
    TITLE "8:cjc150_1144"
    INDEX 01 01:24:37
  TRACK 42 AUDIO
    TITLE "0:"
    INDEX 01 01:27:18
  TRACK 43 AUDIO
    TITLE "6:cjc150_1145"
    INDEX 01 01:28:10
  TRACK 44 AUDIO
    TITLE "6:cjc150_1146"
    INDEX 01 01:30:26
  TRACK 45 AUDIO
    TITLE "6:cjc150_1147"
    INDEX 01 01:32:66
  TRACK 46 AUDIO
    TITLE "6:cjc150_1148"
    INDEX 01 01:34:34
  TRACK 47 AUDIO
    TITLE "6:cjc150_1149"
    INDEX 01 01:36:09
  TRACK 48 AUDIO
    TITLE "6:cjc150_1150"
    INDEX 01 01:38:06
  TRACK 49 AUDIO
    TITLE "6:cjc150_1151"
    INDEX 01 01:40:74
  TRACK 50 AUDIO
    TITLE "6:cjc150_1152"
    INDEX 01 01:43:11
  TRACK 51 AUDIO
    TITLE "6:cjc150_1153"
    INDEX 01 01:45:18
  TRACK 52 AUDIO
    TITLE "6:cjc150_1154"
    INDEX 01 01:48:52
  TRACK 53 AUDIO
    TITLE "6:cjc150_1155"
    INDEX 01 01:53:12
  TRACK 54 AUDIO
    TITLE "6:cjc150_1156"
    INDEX 01 01:56:39
  TRACK 55 AUDIO
    TITLE "8:cjc150_1157"
    INDEX 01 01:59:16
  TRACK 56 AUDIO
    TITLE "0:"
    INDEX 01 02:00:69
  TRACK 57 AUDIO
    TITLE "7:cjc150_1158"
    INDEX 01 02:01:48
  TRACK 58 AUDIO
    TITLE "7:cjc150_1159"
    INDEX 01 02:07:08
  TRACK 59 AUDIO
    TITLE "0:"
    INDEX 01 02:12:74
